<svg width="367" height="130" viewBox="0 0 367 164" fill="none" xmlns="http://www.w3.org/2000/svg">
<path d="M39.5312 17.125H41.6406L34.9219 56.0703C33.9323 61.7995 31.7057 66.3568 28.2422 69.7422C24.8047 73.1016 20.7031 74.7812 15.9375 74.7812C10.9896 74.7812 7.34375 73.2708 5 70.25C2.65625 67.2031 1.86198 63.2318 2.61719 58.3359H4.72656C4.38802 60.4193 4.36198 62.3333 4.64844 64.0781C5.09115 66.8646 6.27604 69 8.20312 70.4844C10.1562 71.9427 12.7214 72.6719 15.8984 72.6719C20.1432 72.6719 23.8021 71.1354 26.875 68.0625C29.9479 64.9896 31.9141 60.9922 32.7734 56.0703L39.5312 17.125ZM46.1719 52.0469C46.8229 48.1146 48.138 44.5339 50.1172 41.3047C52.0964 38.0755 54.5703 35.5495 57.5391 33.7266C60.5078 31.8776 63.75 30.9531 67.2656 30.9531C70.1302 30.9531 72.6693 31.5911 74.8828 32.8672C77.0964 34.1432 78.8542 36.0443 80.1562 38.5703C81.4583 41.0703 82.2005 43.8438 82.3828 46.8906C82.4609 48.6615 82.3047 50.9271 81.9141 53.6875C81.263 57.6198 79.9349 61.2135 77.9297 64.4688C75.9505 67.724 73.4766 70.263 70.5078 72.0859C67.5651 73.8828 64.349 74.7812 60.8594 74.7812C57.9688 74.7812 55.4167 74.1432 53.2031 72.8672C51.0156 71.5651 49.2578 69.6771 47.9297 67.2031C46.6276 64.7031 45.8984 61.9036 45.7422 58.8047C45.638 57.0599 45.7812 54.8073 46.1719 52.0469ZM48.0078 60.4062C48.5286 64.1823 49.9219 67.1771 52.1875 69.3906C54.4531 71.5781 57.3307 72.6719 60.8203 72.6719C64.9089 72.6719 68.5938 71.2396 71.875 68.375C75.1823 65.5104 77.5651 61.6432 79.0234 56.7734C80.2214 52.737 80.5729 48.9219 80.0781 45.3281C79.5052 41.5521 78.0859 38.5703 75.8203 36.3828C73.5807 34.1693 70.7422 33.0625 67.3047 33.0625C63.2161 33.0625 59.5182 34.5208 56.2109 37.4375C52.9036 40.3281 50.5208 44.1693 49.0625 48.9609C47.8646 52.9453 47.513 56.7604 48.0078 60.4062ZM104.648 74.7812C101.732 74.7812 99.1406 74.1432 96.875 72.8672C94.6354 71.5911 92.9688 69.7422 91.875 67.3203L90.6641 74H88.5547L98.9062 14H101.016L96.4844 39.4297C98.4375 36.6953 100.716 34.599 103.32 33.1406C105.951 31.6823 108.776 30.9531 111.797 30.9531C114.531 30.9531 116.862 31.6302 118.789 32.9844C120.716 34.3385 122.122 36.3307 123.008 38.9609C123.919 41.5651 124.323 44.4557 124.219 47.6328C124.141 49.2995 123.984 50.901 123.75 52.4375L123.242 55.0156C121.888 61.1354 119.57 65.9661 116.289 69.5078C113.008 73.0234 109.128 74.7812 104.648 74.7812ZM121.562 52.4375L122.031 48.2578C122.24 45.4193 121.992 42.7891 121.289 40.3672C120.612 37.9453 119.453 36.1224 117.812 34.8984C116.198 33.6745 114.206 33.0625 111.836 33.0625C108.372 33.0625 105.104 34.1042 102.031 36.1875C98.9844 38.2708 96.9401 40.849 95.8984 43.9219L92.4219 63.2969C93.0469 66.3177 94.4401 68.6354 96.6016 70.25C98.7891 71.8646 101.471 72.6719 104.648 72.6719C108.841 72.6719 112.396 70.9531 115.312 67.5156C118.229 64.0521 120.26 59.2995 121.406 53.2578L121.562 52.4375Z" fill="white"/>
<path d="M120.922 99.0938H103.734L95.2578 148H85.6484L94.1641 99.0938H77.0938L78.5 91.125H122.328L120.922 99.0938ZM144.203 114.406C143.005 114.146 141.794 114.016 140.57 114.016C136.508 113.911 133.279 115.591 130.883 119.055L125.805 148H116.547L123.852 105.734L132.641 105.695L131.703 110.5C134.594 106.672 137.927 104.797 141.703 104.875C142.562 104.875 143.747 105.07 145.258 105.461L144.203 114.406ZM168.148 148C167.836 146.958 167.706 145.643 167.758 144.055C164.268 147.31 160.505 148.885 156.469 148.781C152.797 148.729 149.75 147.557 147.328 145.266C144.932 142.948 143.812 140.018 143.969 136.477C144.177 132.023 146.104 128.521 149.75 125.969C153.396 123.417 158.292 122.141 164.438 122.141L170.453 122.219L171 119.328C171.156 118.312 171.156 117.362 171 116.477C170.479 113.664 168.617 112.219 165.414 112.141C163.435 112.089 161.69 112.596 160.18 113.664C158.695 114.706 157.784 116.112 157.445 117.883L148.188 117.961C148.37 115.357 149.294 113.078 150.961 111.125C152.628 109.146 154.841 107.609 157.602 106.516C160.362 105.422 163.279 104.901 166.352 104.953C170.961 105.057 174.555 106.451 177.133 109.133C179.711 111.789 180.779 115.24 180.336 119.484L177.094 139.289L176.781 142.805C176.703 144.341 176.898 145.839 177.367 147.297L177.328 148H168.148ZM158.617 141.203C160.57 141.255 162.38 140.812 164.047 139.875C165.714 138.911 167.133 137.674 168.305 136.164L169.75 128.156L165.336 128.117C161.846 128.117 159.06 128.781 156.977 130.109C154.893 131.411 153.708 133.208 153.422 135.5C153.214 137.245 153.591 138.625 154.555 139.641C155.544 140.63 156.898 141.151 158.617 141.203ZM203.891 141.242C206.104 141.294 208.057 140.656 209.75 139.328C211.469 137.974 212.562 136.216 213.031 134.055L221.781 134.016C221.495 136.802 220.479 139.341 218.734 141.633C217.016 143.924 214.802 145.708 212.094 146.984C209.385 148.26 206.56 148.859 203.617 148.781C199.997 148.729 196.911 147.792 194.359 145.969C191.807 144.146 189.945 141.633 188.773 138.43C187.602 135.201 187.211 131.607 187.602 127.648L187.719 126.281C188.161 122.193 189.346 118.495 191.273 115.188C193.227 111.854 195.74 109.289 198.812 107.492C201.885 105.695 205.297 104.849 209.047 104.953C213.63 105.057 217.289 106.581 220.023 109.523C222.758 112.44 224.125 116.242 224.125 120.93H215.453C215.453 118.508 214.854 116.529 213.656 114.992C212.484 113.456 210.779 112.635 208.539 112.531C204.919 112.427 202.068 113.964 199.984 117.141C197.901 120.318 196.781 124.797 196.625 130.578C196.443 137.583 198.865 141.138 203.891 141.242ZM243.305 129.953L238.07 134.602L235.766 148H226.508L236.898 88H246.156L240.219 122.062L243.461 118.703L256.898 105.734H268.734L249.984 123.781L262.328 148H252.289L243.305 129.953ZM285.766 148.781C282.094 148.703 278.904 147.779 276.195 146.008C273.513 144.237 271.521 141.815 270.219 138.742C268.943 135.669 268.461 132.245 268.773 128.469L268.891 126.867C269.359 122.57 270.609 118.716 272.641 115.305C274.698 111.867 277.25 109.263 280.297 107.492C283.344 105.721 286.651 104.875 290.219 104.953C295.505 105.057 299.464 107.023 302.094 110.852C304.75 114.68 305.753 119.667 305.102 125.812L304.555 129.875H277.953C277.719 133.234 278.396 135.943 279.984 138C281.573 140.057 283.76 141.112 286.547 141.164C290.531 141.294 294.203 139.562 297.562 135.969L302.25 140.891C300.479 143.417 298.148 145.383 295.258 146.789C292.367 148.169 289.203 148.833 285.766 148.781ZM289.711 112.531C284.815 112.375 281.143 115.839 278.695 122.922L296.234 122.961L296.391 122.141C296.573 120.943 296.586 119.771 296.43 118.625C296.143 116.776 295.414 115.318 294.242 114.25C293.07 113.182 291.56 112.609 289.711 112.531ZM336.312 114.406C335.115 114.146 333.904 114.016 332.68 114.016C328.617 113.911 325.388 115.591 322.992 119.055L317.914 148H308.656L315.961 105.734L324.75 105.695L323.812 110.5C326.703 106.672 330.036 104.797 333.812 104.875C334.672 104.875 335.857 105.07 337.367 105.461L336.312 114.406Z" fill="white"/>
</svg>
