<svg width="131" height="74" viewBox="0 0 131 74" fill="none" xmlns="http://www.w3.org/2000/svg">
<rect y="5" width="58" height="50" rx="5" fill="#286B78" fill-opacity="0.8"/>
<path d="M69.8828 9.78125H70.4102L68.7305 19.5176C68.4831 20.9499 67.9264 22.0892 67.0605 22.9355C66.2012 23.7754 65.1758 24.1953 63.9844 24.1953C62.7474 24.1953 61.8359 23.8177 61.25 23.0625C60.6641 22.3008 60.4655 21.3079 60.6543 20.084H61.1816C61.097 20.6048 61.0905 21.0833 61.1621 21.5195C61.2728 22.2161 61.569 22.75 62.0508 23.1211C62.5391 23.4857 63.1803 23.668 63.9746 23.668C65.0358 23.668 65.9505 23.2839 66.7188 22.5156C67.487 21.7474 67.9785 20.748 68.1934 19.5176L69.8828 9.78125ZM71.543 18.5117C71.7057 17.5286 72.0345 16.6335 72.5293 15.8262C73.0241 15.0189 73.6426 14.3874 74.3848 13.9316C75.127 13.4694 75.9375 13.2383 76.8164 13.2383C77.5326 13.2383 78.1673 13.3978 78.7207 13.7168C79.2741 14.0358 79.7135 14.5111 80.0391 15.1426C80.3646 15.7676 80.5501 16.4609 80.5957 17.2227C80.6152 17.6654 80.5762 18.2318 80.4785 18.9219C80.3158 19.9049 79.9837 20.8034 79.4824 21.6172C78.9876 22.431 78.3691 23.0658 77.627 23.5215C76.8913 23.9707 76.0872 24.1953 75.2148 24.1953C74.4922 24.1953 73.8542 24.0358 73.3008 23.7168C72.7539 23.3913 72.3145 22.9193 71.9824 22.3008C71.6569 21.6758 71.4746 20.9759 71.4355 20.2012C71.4095 19.765 71.4453 19.2018 71.543 18.5117ZM72.002 20.6016C72.1322 21.5456 72.4805 22.2943 73.0469 22.8477C73.6133 23.3945 74.3327 23.668 75.2051 23.668C76.2272 23.668 77.1484 23.3099 77.9688 22.5938C78.7956 21.8776 79.3913 20.9108 79.7559 19.6934C80.0553 18.6842 80.1432 17.7305 80.0195 16.832C79.8763 15.888 79.5215 15.1426 78.9551 14.5957C78.3952 14.0423 77.6855 13.7656 76.8262 13.7656C75.804 13.7656 74.8796 14.1302 74.0527 14.8594C73.2259 15.582 72.6302 16.5423 72.2656 17.7402C71.9661 18.7363 71.8783 19.6901 72.002 20.6016ZM86.1621 24.1953C85.4329 24.1953 84.7852 24.0358 84.2188 23.7168C83.6589 23.3978 83.2422 22.9355 82.9688 22.3301L82.666 24H82.1387L84.7266 9H85.2539L84.1211 15.3574C84.6094 14.6738 85.179 14.1497 85.8301 13.7852C86.4876 13.4206 87.194 13.2383 87.9492 13.2383C88.6328 13.2383 89.2155 13.4076 89.6973 13.7461C90.179 14.0846 90.5306 14.5827 90.752 15.2402C90.9798 15.8913 91.0807 16.6139 91.0547 17.4082C91.0352 17.8249 90.9961 18.2253 90.9375 18.6094L90.8105 19.2539C90.472 20.7839 89.8926 21.9915 89.0723 22.877C88.252 23.7559 87.2819 24.1953 86.1621 24.1953ZM90.3906 18.6094L90.5078 17.5645C90.5599 16.8548 90.498 16.1973 90.3223 15.5918C90.153 14.9863 89.8633 14.5306 89.4531 14.2246C89.0495 13.9186 88.5514 13.7656 87.959 13.7656C87.0931 13.7656 86.276 14.026 85.5078 14.5469C84.7461 15.0677 84.235 15.7122 83.9746 16.4805L83.1055 21.3242C83.2617 22.0794 83.61 22.6589 84.1504 23.0625C84.6973 23.4661 85.3678 23.668 86.1621 23.668C87.2103 23.668 88.099 23.2383 88.8281 22.3789C89.5573 21.513 90.0651 20.3249 90.3516 18.8145L90.3906 18.6094Z" fill="#C4C4C4"/>
<path d="M72.4805 34.7734H68.1836L66.0645 47H63.6621L65.791 34.7734H61.5234L61.875 32.7812H72.832L72.4805 34.7734ZM78.3008 38.6016C78.0013 38.5365 77.6986 38.5039 77.3926 38.5039C76.377 38.4779 75.5697 38.8978 74.9707 39.7637L73.7012 47H71.3867L73.2129 36.4336L75.4102 36.4238L75.1758 37.625C75.8984 36.668 76.7318 36.1992 77.6758 36.2188C77.8906 36.2188 78.1868 36.2676 78.5645 36.3652L78.3008 38.6016ZM84.2871 47C84.209 46.7396 84.1764 46.4108 84.1895 46.0137C83.3171 46.8275 82.3763 47.2214 81.3672 47.1953C80.4492 47.1823 79.6875 46.8893 79.082 46.3164C78.4831 45.737 78.2031 45.0046 78.2422 44.1191C78.2943 43.0059 78.776 42.1302 79.6875 41.4922C80.599 40.8542 81.8229 40.5352 83.3594 40.5352L84.8633 40.5547L85 39.832C85.0391 39.5781 85.0391 39.3405 85 39.1191C84.8698 38.416 84.4043 38.0547 83.6035 38.0352C83.1087 38.0221 82.6725 38.1491 82.2949 38.416C81.9238 38.6764 81.696 39.028 81.6113 39.4707L79.2969 39.4902C79.3424 38.8392 79.5736 38.2695 79.9902 37.7812C80.4069 37.2865 80.9603 36.9023 81.6504 36.6289C82.3405 36.3555 83.0697 36.2253 83.8379 36.2383C84.9902 36.2643 85.8887 36.6126 86.5332 37.2832C87.1777 37.9473 87.4447 38.8099 87.334 39.8711L86.5234 44.8223L86.4453 45.7012C86.4258 46.0853 86.4746 46.4596 86.5918 46.8242L86.582 47H84.2871ZM81.9043 45.3008C82.3926 45.3138 82.8451 45.2031 83.2617 44.9688C83.6784 44.7279 84.0332 44.4186 84.3262 44.041L84.6875 42.0391L83.584 42.0293C82.7116 42.0293 82.015 42.1953 81.4941 42.5273C80.9733 42.8529 80.6771 43.3021 80.6055 43.875C80.5534 44.3112 80.6478 44.6562 80.8887 44.9102C81.1361 45.1576 81.4746 45.2878 81.9043 45.3008ZM93.2227 45.3105C93.776 45.3236 94.2643 45.1641 94.6875 44.832C95.1172 44.4935 95.3906 44.054 95.5078 43.5137L97.6953 43.5039C97.6237 44.2005 97.3698 44.8353 96.9336 45.4082C96.5039 45.9811 95.9505 46.4271 95.2734 46.7461C94.5964 47.0651 93.89 47.2148 93.1543 47.1953C92.2493 47.1823 91.4779 46.9479 90.8398 46.4922C90.2018 46.0365 89.7363 45.4082 89.4434 44.6074C89.1504 43.8001 89.0527 42.9017 89.1504 41.9121L89.1797 41.5703C89.2904 40.5482 89.5866 39.6237 90.0684 38.7969C90.5566 37.9635 91.1849 37.3223 91.9531 36.873C92.7214 36.4238 93.5742 36.2122 94.5117 36.2383C95.6576 36.2643 96.5723 36.6452 97.2559 37.3809C97.9395 38.11 98.2812 39.0605 98.2812 40.2324H96.1133C96.1133 39.627 95.9635 39.1322 95.6641 38.748C95.3711 38.3639 94.9447 38.1589 94.3848 38.1328C93.4798 38.1068 92.7669 38.4909 92.2461 39.2852C91.7253 40.0794 91.4453 41.1992 91.4062 42.6445C91.3607 44.3958 91.9661 45.2845 93.2227 45.3105ZM103.076 42.4883L101.768 43.6504L101.191 47H98.877L101.475 32H103.789L102.305 40.5156L103.115 39.6758L106.475 36.4336H109.434L104.746 40.9453L107.832 47H105.322L103.076 42.4883ZM113.691 47.1953C112.773 47.1758 111.976 46.9447 111.299 46.502C110.628 46.0592 110.13 45.4538 109.805 44.6855C109.486 43.9173 109.365 43.0612 109.443 42.1172L109.473 41.7168C109.59 40.6426 109.902 39.679 110.41 38.8262C110.924 37.9668 111.562 37.3158 112.324 36.873C113.086 36.4303 113.913 36.2188 114.805 36.2383C116.126 36.2643 117.116 36.7559 117.773 37.7129C118.438 38.6699 118.688 39.9167 118.525 41.4531L118.389 42.4688H111.738C111.68 43.3086 111.849 43.9857 112.246 44.5C112.643 45.0143 113.19 45.278 113.887 45.291C114.883 45.3236 115.801 44.8906 116.641 43.9922L117.812 45.2227C117.37 45.8542 116.787 46.3457 116.064 46.6973C115.342 47.0423 114.551 47.2083 113.691 47.1953ZM114.678 38.1328C113.454 38.0938 112.536 38.9596 111.924 40.7305L116.309 40.7402L116.348 40.5352C116.393 40.2357 116.396 39.9427 116.357 39.6562C116.286 39.194 116.104 38.8294 115.811 38.5625C115.518 38.2956 115.14 38.1523 114.678 38.1328ZM126.328 38.6016C126.029 38.5365 125.726 38.5039 125.42 38.5039C124.404 38.4779 123.597 38.8978 122.998 39.7637L121.729 47H119.414L121.24 36.4336L123.438 36.4238L123.203 37.625C123.926 36.668 124.759 36.1992 125.703 36.2188C125.918 36.2188 126.214 36.2676 126.592 36.3652L126.328 38.6016Z" fill="white"/>
<path d="M55.2012 16.4336H44.459L39.1611 47H33.1553L38.4775 16.4336H27.8086L28.6875 11.4531H56.0801L55.2012 16.4336Z" fill="black"/>
<path d="M24.707 11.4531H26.0254L21.8262 35.7939C21.2077 39.3747 19.8161 42.223 17.6514 44.3389C15.5029 46.4385 12.9395 47.4883 9.96094 47.4883C6.86849 47.4883 4.58984 46.5443 3.125 44.6562C1.66016 42.752 1.16374 40.2699 1.63574 37.21H2.9541C2.74251 38.512 2.72624 39.7083 2.90527 40.7988C3.18197 42.5404 3.92253 43.875 5.12695 44.8027C6.34766 45.7142 7.95085 46.1699 9.93652 46.1699C12.5895 46.1699 14.8763 45.2096 16.7969 43.2891C18.7174 41.3685 19.9463 38.8701 20.4834 35.7939L24.707 11.4531Z" fill="black"/>
</svg>
